<svg width="31" height="31" viewBox="0 0 31 31" fill="none" xmlns="http://www.w3.org/2000/svg">
<g id="icon_filled/compass">
<path id="Exclude" fill-rule="evenodd" clip-rule="evenodd" d="M15.334 3C8.43042 3 2.83398 8.59644 2.83398 15.5C2.83398 22.4036 8.43042 28 15.334 28C22.2375 28 27.834 22.4036 27.834 15.5C27.834 8.59644 22.2375 3 15.334 3ZM20.2699 12.1453C20.4196 11.6962 20.3027 11.2009 19.9679 10.8662C19.6331 10.5314 19.1379 10.4145 18.6887 10.5642L13.0637 12.4392C12.6905 12.5636 12.3976 12.8565 12.2732 13.2297L10.3982 18.8547C10.2484 19.3039 10.3653 19.7991 10.7001 20.1339C11.0349 20.4687 11.5301 20.5856 11.9793 20.4359L17.6043 18.5609C17.9776 18.4365 18.2705 18.1436 18.3949 17.7703L20.2699 12.1453Z" fill="black" fill-opacity="0.58"/>
</g>
</svg>
