<svg fill="none" height="50" viewBox="12 -3 50 50" width="50" xmlns="http://www.w3.org/2000/svg">
    <g filter="url(#filter0_d_340_2636)">
        <rect fill="white" height="34" rx="17" shape-rendering="crispEdges" width="34" x="20.668"
            y="5" />
        <path clip-rule="evenodd"
            d="M35.043 23.75C32.6267 23.75 30.668 25.7088 30.668 28.125C30.668 29.5747 31.8432 30.75 33.293 30.75H42.043C43.4927 30.75 44.668 29.5747 44.668 28.125C44.668 25.7088 42.7092 23.75 40.293 23.75H35.043Z"
            fill="black" fill-rule="evenodd" />
        <path clip-rule="evenodd"
            d="M37.668 13.25C35.2517 13.25 33.293 15.2088 33.293 17.625C33.293 20.0412 35.2517 22 37.668 22C40.0842 22 42.043 20.0412 42.043 17.625C42.043 15.2088 40.0842 13.25 37.668 13.25Z"
            fill="black" fill-rule="evenodd" />
    </g>
    <defs>
        <filter color-interpolation-filters="sRGB" filterUnits="userSpaceOnUse" height="70"
            id="filter0_d_340_2636" width="70" x="0.667969" y="-11">
            <feFlood flood-opacity="0" result="BackgroundImageFix" />
            <feColorMatrix in="SourceAlpha" result="hardAlpha" type="matrix"
                values="0 0 0 0 0 0 0 0 0 0 0 0 0 0 0 0 0 0 127 0" />
            <feOffset dy="4" />
            <feGaussianBlur stdDeviation="10" />
            <feComposite in2="hardAlpha" operator="out" />
            <feColorMatrix type="matrix" values="0 0 0 0 0 0 0 0 0 0 0 0 0 0 0 0 0 0 0.25 0" />
            <feBlend in2="BackgroundImageFix" mode="normal" result="effect1_dropShadow_340_2636" />
            <feBlend in="SourceGraphic" in2="effect1_dropShadow_340_2636" mode="normal"
                result="shape" />
        </filter>
    </defs>
</svg>
