<svg width="22" height="23" viewBox="0 0 22 23" fill="none" xmlns="http://www.w3.org/2000/svg">
<path d="M3.88672 22.332C2.66016 22.332 1.73828 22.0273 1.12109 21.418C0.511719 20.8164 0.207031 19.9141 0.207031 18.7109V4.39062C0.207031 3.17969 0.511719 2.27344 1.12109 1.67188C1.73828 1.0625 2.66016 0.757812 3.88672 0.757812H18.1016C19.3281 0.757812 20.2461 1.0625 20.8555 1.67188C21.4727 2.28125 21.7812 3.1875 21.7812 4.39062V18.7109C21.7812 19.9141 21.4727 20.8164 20.8555 21.418C20.2461 22.0273 19.3281 22.332 18.1016 22.332H3.88672ZM3.91016 20.4453H18.0781C18.6562 20.4453 19.1016 20.293 19.4141 19.9883C19.7344 19.6758 19.8945 19.2148 19.8945 18.6055V4.49609C19.8945 3.88672 19.7344 3.42578 19.4141 3.11328C19.1016 2.80078 18.6562 2.64453 18.0781 2.64453H3.91016C3.32422 2.64453 2.875 2.80078 2.5625 3.11328C2.25 3.42578 2.09375 3.88672 2.09375 4.49609V18.6055C2.09375 19.2148 2.25 19.6758 2.5625 19.9883C2.875 20.293 3.32422 20.4453 3.91016 20.4453ZM5.57422 11.5391C5.57422 11.2422 5.66406 11.0039 5.84375 10.8242C6.03125 10.6367 6.27734 10.543 6.58203 10.543H10.0273V7.09766C10.0273 6.80078 10.1172 6.55859 10.2969 6.37109C10.4766 6.18359 10.707 6.08984 10.9883 6.08984C11.2852 6.08984 11.5234 6.18359 11.7031 6.37109C11.8906 6.55078 11.9844 6.79297 11.9844 7.09766V10.543H15.4414C15.7383 10.543 15.9766 10.6367 16.1562 10.8242C16.3438 11.0039 16.4375 11.2422 16.4375 11.5391C16.4375 11.8203 16.3438 12.0508 16.1562 12.2305C15.9766 12.4102 15.7383 12.5 15.4414 12.5H11.9844V15.957C11.9844 16.2539 11.8906 16.4961 11.7031 16.6836C11.5234 16.8633 11.2852 16.9531 10.9883 16.9531C10.707 16.9531 10.4766 16.8633 10.2969 16.6836C10.1172 16.4961 10.0273 16.2539 10.0273 15.957V12.5H6.58203C6.28516 12.5 6.04297 12.4102 5.85547 12.2305C5.66797 12.0508 5.57422 11.8203 5.57422 11.5391Z" fill="white"/>
</svg>
