<svg width="31" height="30" viewBox="0 0 31 30" fill="none" xmlns="http://www.w3.org/2000/svg">
<g id="icon_filled/compass">
<path id="Exclude" fill-rule="evenodd" clip-rule="evenodd" d="M15.333 2.5C8.42945 2.5 2.83301 8.09644 2.83301 15C2.83301 21.9036 8.42945 27.5 15.333 27.5C22.2366 27.5 27.833 21.9036 27.833 15C27.833 8.09644 22.2366 2.5 15.333 2.5ZM20.2689 11.6453C20.4186 11.1962 20.3017 10.7009 19.9669 10.3662C19.6321 10.0314 19.1369 9.91446 18.6878 10.0642L13.0628 11.9392C12.6895 12.0636 12.3966 12.3565 12.2722 12.7297L10.3972 18.3547C10.2475 18.8039 10.3644 19.2991 10.6992 19.6339C11.0339 19.9687 11.5292 20.0856 11.9783 19.9359L17.6033 18.0609C17.9766 17.9365 18.2695 17.6436 18.3939 17.2703L20.2689 11.6453Z" fill="white"/>
</g>
</svg>
