<svg width="25" height="25" viewBox="0 0 25 25" fill="none" xmlns="http://www.w3.org/2000/svg">
<path fill-rule="evenodd" clip-rule="evenodd" d="M7.62891 2.91992C4.86748 2.91992 2.62891 5.1585 2.62891 7.91992V17.9199C2.62891 20.6813 4.86748 22.9199 7.62891 22.9199H17.6289C20.3903 22.9199 22.6289 20.6813 22.6289 17.9199V7.91992C22.6289 5.1585 20.3903 2.91992 17.6289 2.91992H7.62891ZM11.9218 8.21282C12.3123 7.82229 12.9455 7.82229 13.336 8.21282L17.336 12.2128C17.5235 12.4004 17.6289 12.6547 17.6289 12.9199C17.6289 13.1851 17.5235 13.4395 17.336 13.627L13.336 17.627C12.9455 18.0176 12.3123 18.0176 11.9218 17.627C11.5313 17.2365 11.5313 16.6033 11.9218 16.2128L14.2147 13.9199H8.62891C8.07662 13.9199 7.62891 13.4722 7.62891 12.9199C7.62891 12.3676 8.07662 11.9199 8.62891 11.9199H14.2147L11.9218 9.62703C11.5313 9.2365 11.5313 8.60334 11.9218 8.21282Z" fill="white"/>
</svg>
