<svg width="22" height="23" viewBox="0 0 22 23" fill="none" xmlns="http://www.w3.org/2000/svg">
<path d="M13.0688 22.0605C12.563 22.0605 12.187 21.8862 11.9409 21.5376C11.6948 21.189 11.4932 20.7515 11.3359 20.2251L9.7876 15.1597C9.67822 14.7837 9.64062 14.459 9.6748 14.1855C9.70898 13.9121 9.84229 13.6489 10.0747 13.396L20.6772 1.8501C20.7456 1.78174 20.7798 1.70654 20.7798 1.62451C20.7798 1.53564 20.749 1.46387 20.6875 1.40918C20.6328 1.35449 20.5645 1.32715 20.4824 1.32715C20.4004 1.32031 20.3218 1.35107 20.2466 1.41943L8.71094 12.0527C8.4375 12.2988 8.1709 12.4355 7.91113 12.4629C7.65137 12.4834 7.33008 12.4355 6.94727 12.3193L1.7998 10.7402C1.28711 10.583 0.863281 10.3848 0.52832 10.1455C0.200195 9.89941 0.0361328 9.52686 0.0361328 9.02783C0.0361328 8.61768 0.183105 8.26904 0.477051 7.98193C0.777832 7.68799 1.15381 7.45557 1.60498 7.28467L19.457 0.445312C19.6826 0.363281 19.8945 0.301758 20.0928 0.260742C20.291 0.212891 20.4756 0.188965 20.6465 0.188965C21.0361 0.188965 21.3438 0.301758 21.5693 0.527344C21.8018 0.75293 21.918 1.06055 21.918 1.4502C21.918 1.62109 21.894 1.80566 21.8462 2.00391C21.7983 2.20215 21.7334 2.41406 21.6514 2.63965L14.8428 20.4199C14.6514 20.9189 14.4087 21.3154 14.1147 21.6094C13.8276 21.9102 13.479 22.0605 13.0688 22.0605Z" fill="#5D6CF5"/>
</svg>
