<svg width="26" height="24" viewBox="0 0 26 24" fill="none" xmlns="http://www.w3.org/2000/svg">
<g id="icon_filled/Sliders_vertical">
<g id="Group 33519">
<path id="Vector 26 (Stroke)" fill-rule="evenodd" clip-rule="evenodd" d="M7 3C7.55228 3 8 3.44772 8 4V12C8 12.5523 7.55228 13 7 13C6.44772 13 6 12.5523 6 12V4C6 3.44772 6.44772 3 7 3Z" fill="#376062"/>
<path id="Vector 27 (Stroke)" fill-rule="evenodd" clip-rule="evenodd" d="M19 13C19.5523 13 20 13.4477 20 14V22C20 22.5523 19.5523 23 19 23C18.4477 23 18 22.5523 18 22V14C18 13.4477 18.4477 13 19 13Z" fill="#376062"/>
<path id="Union" fill-rule="evenodd" clip-rule="evenodd" d="M7 15C4.79086 15 3 16.7909 3 19C3 21.2091 4.79086 23 7 23C9.20914 23 11 21.2091 11 19C11 16.7909 9.20914 15 7 15Z" fill="#376062"/>
<path id="Union_2" fill-rule="evenodd" clip-rule="evenodd" d="M19 3C16.7909 3 15 4.79086 15 7C15 9.20914 16.7909 11 19 11C21.2091 11 23 9.20914 23 7C23 4.79086 21.2091 3 19 3Z" fill="#376062"/>
</g>
</g>
</svg>
